<svg xmlns="http://www.w3.org/2000/svg" width="45" height="25" viewBox="0 0 45 25">
    <path fill="#FFF" fill-rule="evenodd" d="M45 3.232c-.013.189-.012.237-.045.424a3.084 3.084 0 0 1-.895 1.68L24.774 24.086c-.143.13-.175.166-.33.28-.176.13-.364.24-.563.333-.866.4-1.894.4-2.76 0a3.237 3.237 0 0 1-.562-.333c-.156-.114-.189-.15-.331-.28L.941 5.335c-.133-.138-.17-.17-.288-.321a3.054 3.054 0 0 1-.342-3.23C.79.806 1.78.126 2.886.015c.437-.043.882.001 1.3.13.35.108.679.274.97.489.156.115.189.15.331.28l17.014 16.542L39.515.915l.16-.145c.151-.12.186-.154.35-.258a3.268 3.268 0 0 1 1.872-.51c1.112.037 2.147.65 2.692 1.592.18.31.304.65.366 1 .033.187.032.236.045.425v.213z"/>
</svg>
